<mxfile host="app.diagrams.net" agent="Mozilla/5.0 (Windows NT 10.0; Win64; x64; rv:136.0) Gecko/20100101 Firefox/136.0" version="26.1.1">
  <diagram name="Page-1" id="b5b7bab2-c9e2-2cf4-8b2a-24fd1a2a6d21">
    <mxGraphModel dx="1050" dy="530" grid="1" gridSize="10" guides="1" tooltips="1" connect="1" arrows="1" fold="1" page="1" pageScale="1" pageWidth="827" pageHeight="1169" background="none" math="0" shadow="0">
      <root>
        <mxCell id="0" />
        <mxCell id="1" parent="0" />
        <mxCell id="KO36C8NqsJdPrD6YT3rn-1" value="&lt;p style=&quot;margin:0px;margin-top:6px;text-align:center;&quot;&gt;&lt;b&gt;&amp;lt;&amp;lt;system&amp;gt;&amp;gt;&lt;/b&gt;&lt;/p&gt;&lt;p style=&quot;margin:0px;margin-top:6px;text-align:center;&quot;&gt;&lt;b&gt;agent-workflow&lt;/b&gt;&lt;/p&gt;&lt;hr size=&quot;1&quot; style=&quot;border-style:solid;&quot;&gt;" style="align=left;overflow=fill;html=1;dropTarget=0;whiteSpace=wrap;" parent="1" vertex="1">
          <mxGeometry x="270" y="200" width="180" height="90" as="geometry" />
        </mxCell>
        <mxCell id="KO36C8NqsJdPrD6YT3rn-2" value="" style="shape=component;jettyWidth=8;jettyHeight=4;" parent="KO36C8NqsJdPrD6YT3rn-1" vertex="1">
          <mxGeometry x="1" width="20" height="20" relative="1" as="geometry">
            <mxPoint x="-24" y="4" as="offset" />
          </mxGeometry>
        </mxCell>
        <mxCell id="KO36C8NqsJdPrD6YT3rn-3" value="MCP Fileserver" style="verticalAlign=top;align=left;spacingTop=8;spacingLeft=2;spacingRight=12;shape=cube;size=10;direction=south;fontStyle=4;html=1;whiteSpace=wrap;" parent="1" vertex="1">
          <mxGeometry x="600" y="200" width="150" height="90" as="geometry" />
        </mxCell>
        <mxCell id="KO36C8NqsJdPrD6YT3rn-4" value="" style="endArrow=block;startArrow=block;endFill=1;startFill=1;html=1;rounded=0;exitX=1;exitY=0.5;exitDx=0;exitDy=0;entryX=0.471;entryY=1.02;entryDx=0;entryDy=0;entryPerimeter=0;" parent="1" source="KO36C8NqsJdPrD6YT3rn-1" target="KO36C8NqsJdPrD6YT3rn-3" edge="1">
          <mxGeometry width="160" relative="1" as="geometry">
            <mxPoint x="460" y="280" as="sourcePoint" />
            <mxPoint x="620" y="280" as="targetPoint" />
          </mxGeometry>
        </mxCell>
        <mxCell id="KO36C8NqsJdPrD6YT3rn-6" value="MCP Protocol" style="edgeLabel;html=1;align=center;verticalAlign=middle;resizable=0;points=[];" parent="KO36C8NqsJdPrD6YT3rn-4" vertex="1" connectable="0">
          <mxGeometry x="-0.1513" y="-5" relative="1" as="geometry">
            <mxPoint as="offset" />
          </mxGeometry>
        </mxCell>
        <mxCell id="KO36C8NqsJdPrD6YT3rn-8" value="OpenAI" style="verticalAlign=top;align=left;spacingTop=8;spacingLeft=2;spacingRight=12;shape=cube;size=10;direction=south;fontStyle=4;html=1;whiteSpace=wrap;" parent="1" vertex="1">
          <mxGeometry x="310" y="20" width="120" height="70" as="geometry" />
        </mxCell>
        <mxCell id="KO36C8NqsJdPrD6YT3rn-12" value="" style="endArrow=block;endFill=1;endSize=5;html=1;rounded=0;exitX=0.5;exitY=1;exitDx=0;exitDy=0;entryX=0;entryY=0;entryDx=0;entryDy=50;entryPerimeter=0;startArrow=block;startFill=1;" parent="1" source="KO36C8NqsJdPrD6YT3rn-1" target="KO36C8NqsJdPrD6YT3rn-14" edge="1">
          <mxGeometry width="160" relative="1" as="geometry">
            <mxPoint x="460" y="260" as="sourcePoint" />
            <mxPoint x="370" y="340" as="targetPoint" />
          </mxGeometry>
        </mxCell>
        <mxCell id="KO36C8NqsJdPrD6YT3rn-15" value="PostgreSQL Binary Protocoll viaTCP/IP" style="edgeLabel;html=1;align=center;verticalAlign=middle;resizable=0;points=[];" parent="KO36C8NqsJdPrD6YT3rn-12" vertex="1" connectable="0">
          <mxGeometry x="-0.2333" y="-3" relative="1" as="geometry">
            <mxPoint x="-7" as="offset" />
          </mxGeometry>
        </mxCell>
        <mxCell id="KO36C8NqsJdPrD6YT3rn-13" value="https" style="text;html=1;align=center;verticalAlign=middle;resizable=0;points=[];autosize=1;strokeColor=none;fillColor=none;" parent="1" vertex="1">
          <mxGeometry x="320" y="120" width="50" height="30" as="geometry" />
        </mxCell>
        <mxCell id="KO36C8NqsJdPrD6YT3rn-14" value="Postgres Docker Container" style="verticalAlign=top;align=left;spacingTop=8;spacingLeft=2;spacingRight=12;shape=cube;size=10;direction=south;fontStyle=4;html=1;whiteSpace=wrap;" parent="1" vertex="1">
          <mxGeometry x="300" y="350" width="110" height="60" as="geometry" />
        </mxCell>
        <mxCell id="aXuGzwQWDjtyygwI_Nox-1" value="" style="endArrow=classic;startArrow=classic;html=1;rounded=0;entryX=0;entryY=0;entryDx=70;entryDy=65;entryPerimeter=0;exitX=0.5;exitY=0;exitDx=0;exitDy=0;" edge="1" parent="1" source="KO36C8NqsJdPrD6YT3rn-1" target="KO36C8NqsJdPrD6YT3rn-8">
          <mxGeometry width="50" height="50" relative="1" as="geometry">
            <mxPoint x="370" y="190" as="sourcePoint" />
            <mxPoint x="420" y="140" as="targetPoint" />
          </mxGeometry>
        </mxCell>
      </root>
    </mxGraphModel>
  </diagram>
</mxfile>
